<svg width="64" height="64" xmlns="http://www.w3.org/2000/svg">
 <!-- Created with Method Draw - http://github.com/duopixel/Method-Draw/ -->
 <g>
  <title>background</title>
  <rect fill="#fff" id="canvas_background" height="66" width="66" y="-1" x="-1"/>
  <g display="none" overflow="visible" y="0" x="0" height="100%" width="100%" id="canvasGrid">
   <rect fill="url(#gridpattern)" stroke-width="0" y="0" x="0" height="100%" width="100%"/>
  </g>
 </g>
 <g>
  <title>Layer 1</title>
  <path transform="rotate(-135, 48.8798, 65.5725)" id="svg_2" d="m23.586756,90.868851l-16.717853,16.714745l84.023912,0l0,-84.020775l-67.306059,67.30603zm39.402205,-36.935108c0.607655,-0.597 1.56694,-0.597 2.167717,0l3.785683,3.783272c0.600807,0.596962 0.607674,1.566315 0.006905,2.163933c-0.300705,0.296974 -0.695435,0.446987 -1.083885,0.446987c-0.394722,0 -0.783127,-0.150013 -1.076965,-0.446987l-3.799454,-3.783207c-0.597012,-0.597027 -0.597012,-1.563217 0,-2.163998zm-5.22559,5.235638c0.600624,-0.597012 1.566895,-0.597012 2.160873,0l7.037235,7.030449c0.600845,0.597603 0.600845,1.566963 0.006271,2.1577c-0.300072,0.300072 -0.694778,0.453201 -1.090141,0.453201s-0.783134,-0.150017 -1.076996,-0.446968l-7.037243,-7.03038c-0.600185,-0.597023 -0.600185,-1.566975 0,-2.164001zm-5.235012,5.225693c0.600803,-0.59766 1.566319,-0.59766 2.167152,0l3.786236,3.789391c0.600826,0.597023 0.593948,1.566338 -0.00684,2.163986c-0.300095,0.300072 -0.68856,0.450119 -1.076996,0.450119c-0.394684,0 -0.783161,-0.150047 -1.083294,-0.450119l-3.786259,-3.786354c-0.597668,-0.596954 -0.597668,-1.570015 0,-2.167023zm-5.225746,5.231827c0.600788,-0.596985 1.567066,-0.590767 2.167145,0.006844l3.780106,3.782631c0.596981,0.600784 0.596981,1.566971 0,2.16394c-0.300678,0.300682 -0.692257,0.450745 -1.083855,0.450745c-0.388428,0 -0.783142,-0.150063 -1.08382,-0.450745l-3.779575,-3.789436c-0.596916,-0.600716 -0.596916,-1.566299 0,-2.163979zm-5.231846,5.235649c0.597034,-0.600746 1.563293,-0.600746 2.163979,0l7.030384,7.027275c0.600803,0.600174 0.600803,1.569481 0,2.170219c-0.299961,0.300713 -0.688553,0.450722 -1.076981,0.450722c-0.395325,0 -0.789993,-0.150009 -1.090023,-0.450722l-7.027359,-7.033539c-0.597683,-0.600761 -0.597683,-1.56691 0,-2.163956zm-6.498718,24.880684c-0.296944,0.303833 -0.691669,0.453911 -1.083263,0.453911c-0.388439,0 -0.77689,-0.146988 -1.077606,-0.44706l-7.030409,-7.027275c-0.600168,-0.597656 -0.600168,-1.563881 0,-2.163986s1.563826,-0.600777 2.16087,0l7.030409,7.02729c0.597687,0.593903 0.597687,1.560097 0,2.15712zm1.990883,-8.476563c-0.303211,0.30378 -0.698517,0.453827 -1.08696,0.453827c-0.391609,0 -0.783215,-0.146935 -1.077019,-0.447029l-3.792542,-3.789398c-0.600796,-0.597641 -0.600796,-1.56324 0,-2.154045c0.600819,-0.603874 1.566906,-0.610718 2.167088,-0.009941l3.789433,3.792595c0.597694,0.587662 0.597694,1.556931 0,2.153992zm5.225616,-5.228806c-0.299988,0.300667 -0.688511,0.45076 -1.083157,0.45076c-0.388538,0 -0.780704,-0.150093 -1.080826,-0.45076l-3.782555,-3.78569c-0.600822,-0.600769 -0.600822,-1.566917 0,-2.167671s1.566288,-0.593918 2.163982,0.006813l3.782555,3.789421c0.597656,0.597061 0.597656,1.566345 0,2.157127zm31.781048,5.225693l-28.29847,0l28.29847,-28.298504l0,28.298504zm-0.391647,-36.611351c-0.2938,0.300056 -0.68853,0.450111 -1.076958,0.450111c-0.395325,0 -0.790001,-0.150055 -1.089989,-0.450111l-3.786423,-3.783253c-0.600708,-0.597023 -0.600708,-1.563217 0,-2.163937c0.593903,-0.59705 1.563164,-0.59705 2.160858,0l3.78569,3.783203c0.600792,0.600132 0.603889,1.566349 0.006821,2.163986zm8.472931,-1.984703c-0.300011,0.300049 -0.694695,0.447018 -1.083199,0.447018s-0.783119,-0.146969 -1.076981,-0.447018l-7.031113,-7.030418c-0.600075,-0.597034 -0.600075,-1.570068 0,-2.16708s1.573761,-0.590794 2.16774,0.006229l7.030357,7.030403c0.597069,0.59766 0.590874,1.566959 -0.006805,2.160866z" stroke-opacity="null" stroke-width="null" stroke="null" fill="#ff7f00"/>
 </g>
</svg>